<svg xmlns="http://www.w3.org/2000/svg" viewBox="0 0 500 500"><defs><style>.cls-1{fill:#1d1d44}</style></defs><path d="M372.14 228.12c-121.38 69.21-286.04 1.62-286.02-33.85 0-10.86 76.56 37.15 142.71-11.36 50.15-36.78 87.37-10.73 143.32 45.22" class="cls-1"/><path d="M300.22 230.26c3.04 139.69-134.83 252.27-166.01 235.36-14.67-7.95 131.34-152.35 68.3-233.26" class="cls-1"/><path d="M31.08 205.32C14.7 217.58 171.4-3.58 318.42 37.87c114.81 32.37 169.49 190.65 146.54 211.34-21.61 19.49-149.04-136.62-222.75-96.01-99.1 54.6-112.94-21.4-211.13 52.12ZM200.8 324.38C159.34 372.5 78.52 368.6 73.13 353.4c-1.65-4.65 38.45 4.26 59.4-26.58 15.89-23.39 35.79-17.89 68.27-2.44" class="cls-1"/><path d="M170.31 336.24c22.56 59.38-19.37 128.58-35.3 126.08-7.49-1.17 33.08-85.25-6.24-110.31" class="cls-1"/><path d="M51.23 366.51c-5.15 7.74 28.32-110.84 97.61-115.45 54.1-3.6 101.61 55.88 94.93 68.23-6.29 11.64-84.63-35.85-110.03-7.23-34.14 38.47-51.64 8.02-82.51 54.45Z" class="cls-1"/></svg>
