<svg xmlns="http://www.w3.org/2000/svg" viewBox="0 0 3000 3000" role="img"><defs><style>.cls-1{fill:#212121;}.cls-2{fill:#f8ed36;}.cls-3{fill:#c4c6c8;}</style></defs><path class="cls-1" d="M2514.7,1090.23a912.83,912.83,0,0,1-10.11,408.8,881.73,881.73,0,0,1-84.51,212.39c-34.11,60.93-78.61,111.09-121.64,159.6-20.92,23.58-40.68,45.86-59.12,69.11a322.76,322.76,0,0,0-56.54,106.3c-10.9,34.34-18.12,74.2-23.42,129.22a184.25,184.25,0,0,1-37.49,94.39,163.17,163.17,0,0,1-6,160.86,163.06,163.06,0,0,1-116.67,247.22q-2.07,5.91-4.52,11.71a193.1,193.1,0,0,1-178,118H1436.85a193.39,193.39,0,0,1-178-118q-2.46-5.81-4.52-11.72a163.09,163.09,0,0,1-116.66-247.31,163.08,163.08,0,0,1-11.47-149.13q2.7-6.39,5.92-12.5c-21.65-28.49-33.64-63.89-36.63-108.12-.51-7.39-.57-14.25-.62-20.31,0-5.82-.09-11.31-.54-15.05-1.59-13-3.36-26.83-6.08-39.58a346.06,346.06,0,0,0-12.72-44.52,337.88,337.88,0,0,0-26.11-55.78c-14.13-24.14-29.75-44.9-46.42-61.7-8.28-8.34-16.81-16.42-25.84-25-21.21-20.09-43.14-40.87-63.37-66.6a913.29,913.29,0,0,1-70.17-103.13,902.64,902.64,0,0,1-123.25-456.58,912.66,912.66,0,0,1,18.42-182.6A901.8,901.8,0,0,1,875.19,766,908.76,908.76,0,0,1,1273.91,437.7a903.24,903.24,0,0,1,170.23-52.84,914.72,914.72,0,0,1,365.19,0,901.61,901.61,0,0,1,324.21,136.42A908.84,908.84,0,0,1,2461.86,920,901.69,901.69,0,0,1,2514.7,1090.23Zm-151.34,589.44c69-123.28,104.75-265.75,104.75-406.84,0-464.68-376.7-841.38-841.38-841.38s-841.38,376.7-841.38,841.38a838.7,838.7,0,0,0,179.52,519.54c25.2,32.05,55.63,57.14,84.24,86,21.84,22,40.74,47.93,56.38,74.65a402.34,402.34,0,0,1,31.15,66.55,409.18,409.18,0,0,1,15.14,53c3.21,15,5.2,30.13,7,45.37,1.55,12.76.6,25.88,1.48,38.76,1.64,24.12,6.74,48.43,20.31,68.67h893.47a118.61,118.61,0,0,0,20.56-55.87c9.92-102.91,28.61-187.6,93.74-269.7C2246.64,1826.3,2317.18,1762.16,2363.36,1679.67Z"/><path class="cls-2" d="M2468.11,1272.83c0,141.09-35.73,283.56-104.75,406.84-46.18,82.49-116.72,146.63-175,220.06-65.13,82.1-83.82,166.79-93.74,269.7a118.61,118.61,0,0,1-20.56,55.87H1180.62c-13.57-20.24-18.67-44.55-20.31-68.67-.88-12.88.07-26-1.48-38.76-1.85-15.24-3.84-30.35-7-45.37a409.18,409.18,0,0,0-15.14-53,402.34,402.34,0,0,0-31.15-66.55c-15.64-26.72-34.54-52.64-56.38-74.65-28.61-28.82-59-53.91-84.24-86a838,838,0,0,1-179.52-519.54c0-464.68,376.7-841.38,841.38-841.38S2468.11,808.15,2468.11,1272.83Z"/><path class="cls-3" d="M1262.67,2461.13h728.12a74.21,74.21,0,0,1,74.21,74.21V2537a74.2,74.2,0,0,1-74.2,74.2H1262.67a74.2,74.2,0,0,1-74.2-74.2v-1.71A74.21,74.21,0,0,1,1262.67,2461.13Z"/><path class="cls-3" d="M1338.9,2654.75h0c0,47.05,28.18,85.18,62.95,85.18h449.77c34.77,0,63-38.13,63-85.18H1338.9Z"/><path class="cls-3" d="M1262.67,2270.13h728.12a74.21,74.21,0,0,1,74.21,74.21V2346a74.2,74.2,0,0,1-74.2,74.2H1262.67a74.2,74.2,0,0,1-74.2-74.2v-1.71A74.21,74.21,0,0,1,1262.67,2270.13Z"/></svg>
