<?xml version="1.0" encoding="UTF-8"?><svg id="Layer_1" xmlns="http://www.w3.org/2000/svg" viewBox="0 0 500 500"><defs><style>.cls-1{fill:#2284c7;}.cls-2{fill:#202020;}</style></defs><polygon class="cls-1" points="303.77 148.07 277.61 266.13 276.12 266.13 245.11 148.07 222.33 148.07 222.33 232.5 223.07 232.5 255.57 339.35 305.26 339.35 361.67 148.07 303.77 148.07"/><path class="cls-1" d="M439.3,261.7s-.03-.07-.05-.1c-3.99-6.69-9.34-11.95-16.07-15.78-6.72-3.83-14.2-5.9-22.41-6.21v-1.87c7.41-1.5,13.89-4.19,19.43-8.08,2.56-1.79,4.82-3.81,6.85-6.01,2.37-2.57,4.42-5.39,6.08-8.51,3.08-5.79,4.62-12.2,4.62-19.24,0-2.88-.3-5.61-.74-8.27-1.06-6.3-3.3-12-6.87-17.04-4.75-6.69-11.7-11.92-20.69-15.78-.62-.27-1.17-.59-1.82-.84-9.93-3.92-22.18-5.88-36.75-5.88h-22.73v40.72h13.76c6.47,0,11.83,1.57,16.06,4.71,4.24,3.15,6.35,7.68,6.35,13.59,0,3.92-.98,7.24-2.94,9.95-1.96,2.71-4.69,4.78-8.17,6.21-3.49,1.43-7.5,2.15-12.05,2.15h-13.02v32.13h16.75c5.29,0,9.82,.81,13.59,2.43,3.77,1.62,6.68,3.99,8.73,7.1,2.05,3.11,3.08,6.91,3.08,11.39,0,6.42-2.18,11.26-6.54,14.52-4.36,3.27-10.9,4.9-19.61,4.9h-16.01v41.47h29.83c13.89,0,25.84-2.34,35.86-7,10.02-4.67,17.76-11.08,23.21-19.24,5.45-8.16,8.17-17.46,8.17-27.93,0-8.98-1.98-16.81-5.92-23.48Z"/><polygon class="cls-2" points="191.44 148.07 145.86 148.07 114.85 265.75 113.36 265.75 87.21 148.07 29.3 148.07 85.71 339.35 135.4 339.35 167.9 232.5 169.39 232.5 201.9 339.35 220.91 339.35 220.91 260.27 191.44 148.07"/></svg>