<svg xmlns="http://www.w3.org/2000/svg" xml:space="preserve" x="0" y="0" style="enable-background:new 0 0 350 180" version="1.1" viewBox="0 0 350 180"><style>.st0{enable-background:new}.st1{fill:#202020}.st2{fill:#2284c7}</style><g class="st0"><path d="m18.8 169.5-6.8-23h4.6l4.5 16.9h.2l4.5-16.9h4.6l4.5 16.8h.2l4.5-16.8h4.6l-6.7 23h-4.6l-4.7-16.6h-.3l-4.7 16.6h-4.4z" class="st1"/></g><g class="st0"><path d="M57.8 169.9c-2.3 0-4.2-.5-5.8-1.5s-2.9-2.3-3.8-4.1-1.3-3.8-1.3-6.2.4-4.4 1.3-6.2c.9-1.8 2.1-3.2 3.7-4.2s3.5-1.5 5.6-1.5c1.3 0 2.6.2 3.8.6s2.3 1.1 3.3 2 1.7 2.1 2.3 3.6c.6 1.5.8 3.2.8 5.3v1.6H49.4V156h13.9c0-1.2-.2-2.2-.7-3.1s-1.1-1.6-2-2.2c-.9-.5-1.9-.8-3-.8-1.3 0-2.4.3-3.3.9-.9.6-1.7 1.4-2.2 2.4s-.8 2-.8 3.2v2.6c0 1.5.3 2.8.8 3.9s1.3 1.9 2.3 2.5 2.1.8 3.4.8c.8 0 1.6-.1 2.3-.4.7-.2 1.3-.6 1.8-1.1s.9-1.1 1.2-1.8l4.2.8c-.3 1.2-.9 2.3-1.8 3.3-.9.9-2 1.7-3.3 2.2s-2.7.7-4.4.7zm15.2-.4v-30.6h4.5v11.4h.3c.3-.5.6-1 1.1-1.7.5-.6 1.2-1.2 2-1.7s2-.7 3.4-.7c1.9 0 3.5.5 5 1.4s2.6 2.3 3.4 4.1 1.2 3.9 1.2 6.4-.4 4.6-1.2 6.4-2 3.1-3.4 4.1-3.1 1.4-4.9 1.4c-1.4 0-2.5-.2-3.4-.7s-1.6-1-2.1-1.6-.9-1.2-1.2-1.7h-.4v3.6l-4.3-.1zm4.4-11.5c0 1.6.2 3 .7 4.2s1.1 2.2 2 2.8 2 1 3.3 1 2.5-.4 3.3-1.1c.9-.7 1.6-1.7 2-2.9.5-1.2.7-2.6.7-4.1s-.2-2.9-.7-4.1c-.5-1.2-1.1-2.2-2-2.9s-2-1-3.4-1c-1.3 0-2.4.3-3.3 1s-1.6 1.6-2 2.8c-.4 1.3-.6 2.7-.6 4.3zm24.5-5c-.8 0-1.5-.3-2.1-.9-.6-.6-.9-1.3-.9-2.1s.3-1.5.9-2.1 1.3-.9 2.1-.9 1.5.3 2.1.9c.6.6.9 1.3.9 2.1 0 .5-.1 1-.4 1.5s-.6.8-1.1 1.1c-.4.3-.9.4-1.5.4zm0 16.8c-.8 0-1.5-.3-2.1-.9-.6-.6-.9-1.3-.9-2.1s.3-1.5.9-2.1 1.3-.9 2.1-.9 1.5.3 2.1.9.9 1.3.9 2.1c0 .5-.1 1-.4 1.5s-.6.8-1.1 1.1c-.4.2-.9.4-1.5.4zm20.7-32.4-9.9 36.7h-4l9.9-36.7h4zm15.4 0-9.9 36.7h-4l9.9-36.7h4z" class="st1"/></g><g class="st0"><path d="m146.8 169.5-6.8-23h4.6l4.5 16.9h.2l4.5-16.9h4.6l4.5 16.8h.2l4.5-16.8h4.6l-6.7 23H161l-4.7-16.6h-.3l-4.7 16.6h-4.5z" class="st1"/></g><g class="st0"><path d="M185.6 169.9c-2.2 0-4-.5-5.6-1.5s-2.9-2.4-3.7-4.1c-.9-1.8-1.3-3.8-1.3-6.2s.4-4.5 1.3-6.3c.9-1.8 2.1-3.2 3.7-4.2s3.5-1.5 5.6-1.5 4 .5 5.6 1.5 2.9 2.4 3.7 4.2c.9 1.8 1.3 3.9 1.3 6.3s-.4 4.4-1.3 6.2c-.9 1.8-2.1 3.2-3.7 4.1-1.6 1.1-3.5 1.5-5.6 1.5zm0-3.7c1.4 0 2.6-.4 3.5-1.1.9-.7 1.6-1.7 2-2.9s.7-2.6.7-4.1-.2-2.8-.7-4c-.4-1.2-1.1-2.2-2-3s-2.1-1.1-3.5-1.1-2.6.4-3.5 1.1-1.6 1.7-2 3c-.4 1.2-.7 2.6-.7 4 0 1.5.2 2.8.7 4.1.4 1.2 1.1 2.2 2 2.9s2.1 1.1 3.5 1.1zm15.6 3.3v-23h4.3v3.6h.2c.4-1.2 1.2-2.2 2.2-2.9 1.1-.7 2.3-1.1 3.6-1.1h1c.4 0 .7 0 .9.1v4.3c-.2 0-.5-.1-1-.2s-.9-.1-1.4-.1c-1.1 0-2 .2-2.8.7s-1.5 1.1-2 1.8c-.5.8-.7 1.7-.7 2.7v14l-4.3.1zm16.2 0v-30.6h4.5v30.6h-4.5zm4.1-7.8v-5.5h.8l9.2-9.7h5.4l-10.4 11.1h-.7l-4.3 4.1zm10.4 7.8-8.2-10.9 3.1-3.1 10.6 14h-5.5zm9.3 0v-30.6h4.5v11.4h.3c.3-.5.6-1 1.1-1.7s1.2-1.2 2-1.7 2-.7 3.4-.7c1.9 0 3.5.5 5 1.4s2.6 2.3 3.4 4.1 1.2 3.9 1.2 6.4-.4 4.6-1.2 6.4c-.8 1.8-2 3.1-3.4 4.1s-3.1 1.4-4.9 1.4c-1.4 0-2.5-.2-3.4-.7s-1.6-1-2.1-1.6-.9-1.2-1.2-1.7h-.4v3.6l-4.3-.1zm4.4-11.5c0 1.6.2 3 .7 4.2s1.1 2.2 2 2.8c.9.7 2 1 3.3 1s2.5-.4 3.3-1.1c.9-.7 1.6-1.7 2-2.9.5-1.2.7-2.6.7-4.1s-.2-2.9-.7-4.1c-.5-1.2-1.1-2.2-2-2.9s-2-1-3.4-1c-1.3 0-2.4.3-3.3 1-.9.7-1.6 1.6-2 2.8-.4 1.3-.6 2.7-.6 4.3zm31.3 11.9c-2.2 0-4-.5-5.6-1.5s-2.9-2.4-3.7-4.1c-.9-1.8-1.3-3.8-1.3-6.2s.4-4.5 1.3-6.3 2.1-3.2 3.7-4.2 3.5-1.5 5.6-1.5 4 .5 5.6 1.5 2.9 2.4 3.7 4.2c.9 1.8 1.3 3.9 1.3 6.3s-.4 4.4-1.3 6.2-2.1 3.2-3.7 4.1c-1.6 1.1-3.5 1.5-5.6 1.5zm0-3.7c1.4 0 2.6-.4 3.5-1.1.9-.7 1.6-1.7 2-2.9s.7-2.6.7-4.1-.2-2.8-.7-4c-.4-1.2-1.1-2.2-2-3s-2.1-1.1-3.5-1.1-2.6.4-3.5 1.1-1.6 1.7-2 3c-.4 1.2-.7 2.6-.7 4 0 1.5.2 2.8.7 4.1.4 1.2 1.1 2.2 2 2.9s2.1 1.1 3.5 1.1zm25.3 3.7c-2.2 0-4-.5-5.6-1.5s-2.9-2.4-3.7-4.1c-.9-1.8-1.3-3.8-1.3-6.2s.4-4.5 1.3-6.3 2.1-3.2 3.7-4.2 3.5-1.5 5.6-1.5 4 .5 5.6 1.5 2.9 2.4 3.7 4.2c.9 1.8 1.3 3.9 1.3 6.3s-.4 4.4-1.3 6.2-2.1 3.2-3.7 4.1c-1.5 1.1-3.4 1.5-5.6 1.5zm0-3.7c1.4 0 2.6-.4 3.5-1.1.9-.7 1.6-1.7 2-2.9s.7-2.6.7-4.1-.2-2.8-.7-4c-.4-1.2-1.1-2.2-2-3s-2.1-1.1-3.5-1.1-2.6.4-3.5 1.1-1.6 1.7-2 3c-.4 1.2-.7 2.6-.7 4 0 1.5.2 2.8.7 4.1.4 1.2 1.1 2.2 2 2.9 1 .7 2.1 1.1 3.5 1.1zm15.7 3.3v-30.6h4.5v30.6h-4.5zm4.1-7.8v-5.5h.8l9.2-9.7h5.4L327 157.6h-.7l-4.3 4.1zm10.4 7.8-8.2-10.9 3.1-3.1 10.6 14h-5.5z" class="st1"/></g><path d="m217.5 5.9-16.7 75.6h-1L180 5.9h-14.6V60h.5l20.8 68.4h31.8L254.6 5.9h-37.1z" class="st2"/><path d="M304.3 78.7s0-.1 0 0c-2.6-4.4-6-7.7-10.3-10.2-4.3-2.4-9.1-3.8-14.4-4v-1.2c4.7-1 8.9-2.7 12.4-5.2 1.6-1.1 3.1-2.4 4.4-3.9 1.5-1.6 2.8-3.4 3.9-5.4 2-3.7 3-7.8 3-12.3 0-1.8-.2-3.6-.5-5.3-.7-4-2.1-7.7-4.4-10.9-3-4.3-7.5-7.6-13.2-10.1-.4-.2-.8-.4-1.2-.5-6.4-2.5-14.2-3.8-23.5-3.8h-14.6V32h8.8c4.1 0 7.6 1 10.3 3 2.7 2 4.1 4.9 4.1 8.7 0 2.5-.6 4.6-1.9 6.4-1.3 1.7-3 3.1-5.2 4-2.2.9-4.8 1.4-7.7 1.4H246V76h10.7c3.4 0 6.3.5 8.7 1.6 2.4 1 4.3 2.6 5.6 4.6 1.3 2 2 4.4 2 7.3 0 4.1-1.4 7.2-4.2 9.3-2.8 2.1-7 3.1-12.6 3.1H246v26.6h19.1c8.9 0 16.5-1.5 23-4.5s11.4-7.1 14.9-12.3 5.2-11.2 5.2-17.9c-.1-5.8-1.3-10.8-3.9-15.1z" class="st2"/><path d="M145.6 5.9h-29.2L96.6 81.3h-1L78.9 5.9H41.8l36.1 122.5h31.8L130.5 60h.9l20.8 68.4h12.3V77.8L145.6 5.9z" class="st1"/></svg>
