<?xml version="1.0" standalone="no"?>
<!DOCTYPE svg PUBLIC "-//W3C//DTD SVG 20010904//EN"
 "http://www.w3.org/TR/2001/REC-SVG-20010904/DTD/svg10.dtd">
<svg version="1.0" xmlns="http://www.w3.org/2000/svg"
 width="700.000000pt" height="700.000000pt" viewBox="0 0 700.000000 700.000000"
 preserveAspectRatio="xMidYMid meet">
<metadata>
Created by potrace 1.14, written by Peter Selinger 2001-2017
</metadata>
<g transform="translate(0.000000,700.000000) scale(0.100000,-0.100000)"
fill="#000000" stroke="none">
<path d="M418 4924 c-6 -5 7 -49 240 -839 55 -187 148 -502 207 -700 58 -198
117 -396 130 -440 13 -44 35 -118 49 -165 13 -47 37 -125 51 -175 15 -49 35
-119 46 -155 10 -36 26 -94 37 -130 l19 -65 350 -3 349 -2 38 122 c20 68 50
168 67 223 17 55 43 143 59 195 15 52 54 178 85 280 31 102 88 286 125 410 83
272 83 271 95 262 6 -4 34 -86 63 -182 52 -170 175 -578 252 -830 119 -391
142 -465 146 -472 3 -5 63 -8 135 -8 96 0 129 3 130 13 0 6 0 257 1 557 0 526
-1 548 -22 622 -11 43 -23 85 -25 95 -2 10 -10 43 -19 73 -8 30 -33 127 -56
215 -94 356 -152 576 -180 685 -17 63 -44 167 -61 230 -16 63 -34 132 -40 152
l-9 37 -319 -1 -318 0 -47 -177 c-52 -193 -50 -183 -61 -226 -4 -16 -34 -131
-67 -255 -33 -124 -61 -232 -63 -240 -5 -22 -152 -581 -186 -708 -13 -48 -30
-51 -40 -6 -4 16 -19 83 -33 149 -15 66 -34 149 -42 185 -8 36 -16 74 -19 85
-2 11 -29 135 -61 275 -31 140 -60 273 -65 295 -5 22 -10 49 -13 60 -2 11 -30
135 -61 275 -31 140 -58 262 -61 271 -4 15 -42 17 -403 18 -219 0 -401 -2
-403 -5z"/>
<path d="M3116 4921 c-9 -14 -4 -1165 5 -1180 5 -9 25 -70 45 -136 37 -123
192 -633 238 -785 41 -133 82 -266 116 -380 17 -58 37 -123 44 -145 l13 -40
349 -3 349 -2 27 92 c14 51 49 170 76 263 108 364 214 724 236 800 13 44 34
114 46 155 12 41 26 86 31 100 5 14 15 50 23 80 8 30 35 125 61 210 25 85 62
209 81 275 20 66 38 123 40 126 7 11 244 2 293 -11 129 -35 203 -141 188 -270
-9 -78 -48 -137 -117 -177 -57 -34 -118 -46 -255 -47 l-130 -2 0 -225 0 -224
158 -2 c179 -1 235 -12 303 -55 83 -52 125 -129 126 -228 2 -147 -76 -239
-222 -265 -14 -3 -36 -7 -50 -9 -14 -3 -91 -5 -171 -5 l-145 -1 0 -291 0 -291
305 5 c307 4 325 6 436 33 336 84 565 312 610 609 7 49 7 189 0 230 -39 217
-175 386 -375 468 -64 27 -192 56 -224 51 -11 -1 -16 3 -14 13 2 10 26 22 63
32 284 79 463 312 450 590 -4 92 -4 97 -29 182 -70 241 -312 402 -677 452
-130 18 -1169 21 -1170 4 -1 -15 -1 -16 -38 -178 -18 -75 -33 -146 -36 -157
-2 -11 -13 -64 -25 -118 -12 -55 -24 -109 -26 -122 -5 -24 -38 -170 -54 -237
-5 -22 -28 -125 -50 -230 -23 -104 -45 -206 -50 -225 -10 -37 -37 -158 -46
-200 -4 -24 -17 -87 -28 -139 -10 -47 -30 -43 -42 7 -12 51 -66 255 -109 417
-15 55 -28 107 -30 115 -2 8 -17 65 -33 125 -16 61 -44 166 -62 235 -18 69
-43 163 -55 210 -13 47 -44 166 -70 265 -25 99 -50 194 -56 212 l-10 32 -155
-1 c-85 0 -156 -4 -158 -7z"/>
</g>
</svg>
