<svg xmlns="http://www.w3.org/2000/svg" viewBox="0 0 330 50"><defs><style>.cls-1{fill:#202020}</style></defs><path d="M8.86 38.73 2.1 15.76h4.62l4.5 16.87h.22l4.52-16.87h4.62l4.49 16.79h.22l4.47-16.79h4.62l-6.74 22.97h-4.56l-4.67-16.58h-.34L13.4 38.73H8.85ZM47.81 39.19c-2.26 0-4.21-.49-5.84-1.46s-2.89-2.34-3.77-4.11c-.88-1.77-1.32-3.84-1.32-6.23s.44-4.43 1.32-6.22 2.12-3.19 3.71-4.2c1.59-1.01 3.45-1.51 5.58-1.51 1.3 0 2.55.21 3.77.64a9 9 0 0 1 3.27 2.02c.97.92 1.73 2.11 2.29 3.57s.84 3.23.84 5.32v1.58H39.4v-3.35h13.88c0-1.18-.24-2.22-.72-3.13s-1.15-1.63-2.01-2.16c-.86-.53-1.87-.79-3.03-.79-1.26 0-2.35.31-3.28.92a6.18 6.18 0 0 0-2.15 2.39c-.5.98-.76 2.05-.76 3.19v2.62c0 1.53.27 2.84.81 3.92s1.3 1.9 2.28 2.46 2.12.84 3.42.84c.85 0 1.62-.12 2.32-.37s1.3-.61 1.81-1.1c.51-.49.9-1.09 1.17-1.81l4.23.76a7.615 7.615 0 0 1-1.82 3.27c-.87.93-1.96 1.66-3.27 2.17s-2.8.77-4.48.77ZM63 38.73V8.1h4.47v11.38h.27c.26-.48.63-1.03 1.12-1.66.49-.63 1.17-1.18 2.03-1.65.87-.47 2.01-.71 3.44-.71 1.85 0 3.51.47 4.96 1.41 1.46.94 2.6 2.29 3.43 4.05.83 1.76 1.25 3.89 1.25 6.37s-.41 4.61-1.24 6.38c-.83 1.77-1.96 3.13-3.41 4.08s-3.1 1.43-4.95 1.43c-1.4 0-2.53-.23-3.42-.7-.88-.47-1.57-1.02-2.07-1.64-.5-.63-.88-1.19-1.15-1.67h-.37v3.57h-4.37Zm4.38-11.48c0 1.62.23 3.03.7 4.25.47 1.22 1.15 2.17 2.03 2.85s1.97 1.02 3.26 1.02 2.45-.36 3.35-1.07c.9-.71 1.58-1.68 2.04-2.91.46-1.23.7-2.61.7-4.14s-.23-2.88-.68-4.08c-.45-1.21-1.13-2.16-2.03-2.86-.9-.7-2.03-1.05-3.37-1.05s-2.39.33-3.28 1-1.57 1.6-2.03 2.8-.69 2.59-.69 4.19ZM91.93 22.29c-.82 0-1.52-.29-2.11-.88-.59-.59-.88-1.29-.88-2.11s.29-1.52.88-2.1c.59-.58 1.29-.88 2.11-.88s1.52.29 2.11.88.88 1.28.88 2.1c0 .55-.14 1.05-.41 1.5-.27.45-.64.81-1.08 1.08-.45.27-.95.4-1.5.4Zm0 16.72c-.82 0-1.52-.29-2.11-.88-.59-.58-.88-1.29-.88-2.12s.29-1.52.88-2.1c.59-.58 1.29-.88 2.11-.88s1.52.29 2.11.88c.59.58.88 1.28.88 2.1 0 .55-.14 1.05-.41 1.5-.27.45-.64.82-1.08 1.08-.45.27-.95.4-1.5.4ZM112.56 6.67l-9.87 36.66H98.7l9.87-36.66h3.99ZM128.04 6.67l-9.87 36.66h-3.99l9.87-36.66h3.99ZM136.83 38.73l-6.76-22.97h4.62l4.5 16.87h.22l4.52-16.87h4.62l4.49 16.79h.22l4.47-16.79h4.62l-6.74 22.97h-4.56l-4.67-16.58h-.34l-4.67 16.58h-4.55ZM175.56 39.19c-2.15 0-4.03-.49-5.64-1.48-1.6-.99-2.85-2.37-3.74-4.14s-1.33-3.85-1.33-6.22.44-4.46 1.33-6.25c.89-1.78 2.13-3.17 3.74-4.16 1.6-.99 3.48-1.48 5.64-1.48s4.03.49 5.64 1.48c1.61.99 2.85 2.37 3.74 4.16.89 1.79 1.33 3.87 1.33 6.25s-.44 4.45-1.33 6.22c-.89 1.77-2.13 3.15-3.74 4.14-1.6.99-3.48 1.48-5.64 1.48Zm.01-3.75c1.4 0 2.55-.37 3.47-1.11.92-.74 1.6-1.72 2.04-2.95.44-1.23.67-2.58.67-4.05s-.22-2.81-.67-4.04c-.44-1.23-1.12-2.22-2.04-2.97-.92-.75-2.07-1.12-3.47-1.12s-2.57.37-3.49 1.12c-.92.75-1.6 1.74-2.05 2.97-.44 1.23-.67 2.58-.67 4.04s.22 2.83.67 4.05c.44 1.23 1.13 2.21 2.05 2.95.92.74 2.09 1.11 3.49 1.11ZM191.24 38.73V15.76h4.32v3.65h.24c.42-1.24 1.16-2.21 2.22-2.92 1.06-.71 2.27-1.07 3.61-1.07.28 0 .61 0 .99.03.38.02.69.04.9.07v4.28c-.18-.05-.5-.11-.96-.17-.46-.06-.92-.1-1.38-.1-1.06 0-2 .22-2.82.67-.82.44-1.47 1.06-1.95 1.84s-.72 1.67-.72 2.67v14.02h-4.47ZM207.42 38.73V8.1h4.47v30.62h-4.47Zm4.11-7.79-.03-5.46h.78l9.15-9.72h5.35l-10.44 11.06h-.7l-4.11 4.11Zm10.39 7.79-8.22-10.91 3.08-3.12 10.63 14.04h-5.49ZM231.21 38.73V8.1h4.47v11.38h.27c.26-.48.63-1.03 1.12-1.66s1.17-1.18 2.03-1.65c.87-.47 2.01-.71 3.44-.71 1.85 0 3.51.47 4.96 1.41 1.46.94 2.6 2.29 3.43 4.05.83 1.76 1.25 3.89 1.25 6.37s-.41 4.61-1.24 6.38c-.83 1.77-1.96 3.13-3.41 4.08-1.45.95-3.1 1.43-4.95 1.43-1.4 0-2.54-.23-3.42-.7-.88-.47-1.57-1.02-2.07-1.64-.5-.63-.88-1.19-1.15-1.67h-.37v3.57h-4.37Zm4.38-11.48c0 1.62.23 3.03.7 4.25.47 1.22 1.15 2.17 2.03 2.85.89.68 1.97 1.02 3.26 1.02s2.45-.36 3.35-1.07c.9-.71 1.58-1.68 2.04-2.91.46-1.23.7-2.61.7-4.14s-.23-2.88-.68-4.08c-.45-1.21-1.13-2.16-2.03-2.86-.9-.7-2.03-1.05-3.37-1.05s-2.39.33-3.28 1c-.89.67-1.57 1.6-2.03 2.8-.46 1.2-.69 2.59-.69 4.19ZM266.87 39.19c-2.15 0-4.03-.49-5.64-1.48-1.6-.99-2.85-2.37-3.74-4.14-.89-1.77-1.33-3.85-1.33-6.22s.44-4.46 1.33-6.25c.89-1.78 2.13-3.17 3.74-4.16 1.61-.99 3.48-1.48 5.64-1.48s4.03.49 5.64 1.48c1.6.99 2.85 2.37 3.74 4.16.89 1.79 1.33 3.87 1.33 6.25s-.44 4.45-1.33 6.22c-.89 1.77-2.13 3.15-3.74 4.14-1.61.99-3.48 1.48-5.64 1.48Zm.01-3.75c1.4 0 2.55-.37 3.47-1.11.92-.74 1.6-1.72 2.04-2.95.44-1.23.67-2.58.67-4.05s-.22-2.81-.67-4.04c-.44-1.23-1.12-2.22-2.04-2.97-.92-.75-2.07-1.12-3.47-1.12s-2.57.37-3.49 1.12c-.92.75-1.61 1.74-2.05 2.97-.44 1.23-.67 2.58-.67 4.04s.22 2.83.67 4.05c.44 1.23 1.13 2.21 2.05 2.95.92.74 2.09 1.11 3.49 1.11ZM292.23 39.19c-2.15 0-4.03-.49-5.64-1.48-1.6-.99-2.85-2.37-3.74-4.14-.89-1.77-1.33-3.85-1.33-6.22s.44-4.46 1.33-6.25c.89-1.78 2.13-3.17 3.74-4.16 1.61-.99 3.48-1.48 5.64-1.48s4.03.49 5.64 1.48c1.6.99 2.85 2.37 3.74 4.16.89 1.79 1.33 3.87 1.33 6.25s-.44 4.45-1.33 6.22c-.89 1.77-2.13 3.15-3.74 4.14-1.61.99-3.48 1.48-5.64 1.48Zm.01-3.75c1.4 0 2.55-.37 3.47-1.11.92-.74 1.6-1.72 2.04-2.95.44-1.23.67-2.58.67-4.05s-.22-2.81-.67-4.04c-.44-1.23-1.12-2.22-2.04-2.97-.92-.75-2.07-1.12-3.47-1.12s-2.57.37-3.49 1.12c-.92.75-1.61 1.74-2.05 2.97-.44 1.23-.67 2.58-.67 4.04s.22 2.83.67 4.05c.44 1.23 1.13 2.21 2.05 2.95.92.74 2.09 1.11 3.49 1.11ZM307.91 38.73V8.1h4.47v30.62h-4.47Zm4.11-7.79-.03-5.46h.78l9.15-9.72h5.35l-10.44 11.06h-.7l-4.11 4.11Zm10.39 7.79-8.22-10.91 3.08-3.12 10.63 14.04h-5.49Z" class="cls-1"/></svg>
